<svg xmlns="http://www.w3.org/2000/svg" viewBox="0 0 24 24" width="24" height="24">
  <path fill="#008800" d="M12 2C8.13 2 5 5.13 5 9c0 5.25 7 13 7 13s7-7.75 7-13c0-3.87-3.13-7-7-7zm0 9.5c-1.38 0-2.5-1.12-2.5-2.5s1.12-2.5 2.5-2.5 2.5 1.12 2.5 2.5-1.12 2.5-2.5 2.5z"/>
  <path fill="#ffffff" d="M10 7h4v2h-4z"/>
  <path fill="#ffffff" d="M12 5.5l2 2.5-2 2.5-2-2.5z"/>
  <circle cx="12" cy="16" r="6" fill="#008800" stroke="#ffffff" stroke-width="1"/>
  <path fill="#ffffff" d="M12 13c-0.8 0-1.5 0.7-1.5 1.5s0.7 1.5 1.5 1.5 1.5-0.7 1.5-1.5-0.7-1.5-1.5-1.5zm-2 4h4v1h-4z"/>
  <rect x="11" y="11.5" width="2" height="3" fill="#ffffff"/>
</svg>